<svg version="1.0" xmlns="http://www.w3.org/2000/svg" width="1130.667" height="1130.667" viewBox="0 0 848 848"><path d="M382.7 15c-10.8 6.2-13.1 8-10.4 8 .9 0 1.7.3 1.7.8 0 .4 1.5 1.3 3.3 2.1 1.7.8 3.4 1.7 3.7 2.1.9 1.3 10.5 6 12.2 6 .9 0 1.9-.4 2.3-.9.3-.6 1.8-1.6 3.3-2.4 1.5-.7 4.5-2.4 6.7-3.7 2.2-1.3 5.1-2.9 6.4-3.6l2.4-1.3-2.6-1.2c-1.5-.7-2.7-1.6-2.7-2.1 0-.4-.5-.8-1.1-.8-.7 0-4.4-1.9-8.3-4.3l-7.1-4.3-9.8 5.6zM250 92.1c-3.6 2.2-7.4 4.5-8.5 5-1.1.5-3 1.5-4.2 2.2-2.5 1.5-3 1.1 13.5 10.7 5.4 3.1 7.9 3.3 11.2.6 2-1.7 10.9-6.8 13.9-8.1l2.5-1.1-3-2.1c-1.6-1.1-4.9-3.1-7.4-4.5s-6.1-3.5-8-4.6l-3.5-2.1-6.5 4zm274.8-2c-1.6 1.2-2.8 1.7-2.8 1.2 0-.4-.4-.3-.8.3s-3.7 2.8-7.4 4.8c-3.8 2.1-6.8 4.1-6.8 4.5 0 .3 2.1 1.8 4.8 3.1 2.6 1.4 4.9 2.8 5.2 3.1.8.9 10.2 5.9 11 5.9.5 0 4.3-2 8.4-4.5 4.2-2.5 8.1-4.5 8.6-4.5.6 0 1-.5 1-1 0-.6.7-1 1.5-1 2.8 0 .4-2.5-5.3-5.6-3.1-1.7-7.7-4.3-10.2-5.7l-4.5-2.6-2.7 2zM113 171.5c-14 8.3-14.3 8.5-9.7 10.6 1.2.5 3.8 1.9 5.7 3.1 1.9 1.1 5.4 3.2 7.8 4.5l4.3 2.4 10-5.6c5.4-3.2 10.1-6.1 10.4-6.5.3-.4-1.2-1.8-3.3-3-2-1.2-3.8-2.1-3.8-1.9-.1.2-1-.3-2-1.2-1.9-1.5-11-6.9-11.6-6.8-.2 0-3.7 2-7.8 4.4zm268.2 1.8-10.2 6.2 2.2 1.7c1.3 1 2.6 1.8 2.9 1.8.4 0 4.1 2.1 8.3 4.6l7.6 4.6 10.5-5.9c9.2-5.1 12.8-8.3 9.4-8.3-.6 0-4.8-2.2-9.3-5-4.6-2.7-8.9-5.1-9.7-5.4-.8-.2-6 2.3-11.7 5.7zm274.8-2c-4.1 2.4-9 5.3-10.8 6.4l-3.3 2 9.3 5.4c5.1 3 10 5.7 11 6.1 1.2.5 5.1-1.2 12.3-5.4 9.3-5.3 10.4-6.2 8.8-7.2-1-.6-2.7-1.7-3.8-2.4-1.1-.6-3.1-1.8-4.5-2.4-1.4-.7-3.1-1.8-3.8-2.5-.7-.7-1.9-1.3-2.6-1.3-.8 0-1.9-.7-2.6-1.5-.7-.8-1.5-1.5-1.9-1.5-.3 0-4 2-8.1 4.3zm137.5 11c-2.2 1.2-4.2 2.5-4.5 2.8-.3.3-2.1 1.4-4 2.4-1.9.9-4.3 2.4-5.2 3.3-1 .8-1.8 1.2-1.8.8 0-.4-1.2.1-2.7 1.2-2.2 1.6-37 22-63.3 37.1-2.6 1.4-8.5 4.8-13.3 7.6l-8.7 5v62.2c0 60.1.3 66.2 2.9 62.7.3-.5 1.5-1.4 2.6-2 2.4-1.3 61.5-35.6 78.5-45.5 3.6-2.1 10.6-6.1 15.5-9l9-5.1v-62.9c0-34.6-.2-62.9-.5-62.9-.3.1-2.3 1.1-4.5 2.3zM43 274.3v31.3l13.1 7.5c7.1 4.1 13.6 7.8 14.2 8.4.7.5 2.5 1.7 4.2 2.5 1.6.8 6.9 3.9 11.8 6.8s9.3 5.4 9.9 5.5c.6.1 1-11.2 1.1-30.9l.2-31.2-17.8-10.3c-9.8-5.7-19.1-11.1-20.5-11.9-1.5-.9-5.5-3.2-9-5.3-3.5-2-6.5-3.7-6.8-3.7-.2 0-.4 14.1-.4 31.3zm211-27.2c-1.3.6-2.7 1.3-3 1.7-.3.4-4 2.7-8.2 5.2l-7.8 4.3 3.3 2.1c1.7 1.1 3.5 2 3.9 2.1.4 0 1.3.6 2 1.2.6.7 1.7 1.3 2.4 1.3s1.4.3 1.6.7c.2.5 2.2 1.8 4.5 3.1l4.3 2.2 4-2.5c2.2-1.4 4.4-2.5 5-2.5.5 0 1-.3 1-.8 0-.4 2.3-1.8 5.1-3.2 2.8-1.4 5.3-2.8 5.5-3.2.4-.6-16.9-11.3-19.8-12.3-.7-.2-2.4.1-3.8.6zm264 4.4c-4.7 3-9.1 5.4-9.7 5.4-2.7.2-1.1 2.1 4.5 5.3 3.1 1.8 6.4 3.7 7.3 4.3.9.5 3.1 1.8 4.8 2.8l3.1 1.8 10.5-6.3c9.5-5.6 12.2-7.8 9.6-7.8-.6 0-5.2-2.5-10.4-5.5-5.1-3-9.8-5.5-10.3-5.4-.5.1-4.7 2.5-9.4 5.4zm128 16.7c-8.5 5-17.5 10.2-20 11.6-2.5 1.4-6.1 3.5-8 4.7-1.9 1.2-4.5 2.5-5.7 2.9-1.3.4-2.3 1.2-2.3 1.7 0 .6-.4.7-1 .4-.5-.3-1-.2-1 .2 0 .5-1.7 1.7-3.7 2.8-2.1 1.1-4 2.2-4.3 2.5-.3.3-2.1 1.3-4 2.4-4.9 2.6-8.5 4.7-24.8 14.2-7.9 4.6-14.7 8.4-15.2 8.4-.6 0-1.1.3-1.1.7-.3 1.8-.4 126.3-.1 126.3.2 0 4.7-2.5 10-5.6 5.3-3.1 11.3-6.6 13.2-7.7 7.2-4 29.9-17.2 40.2-23.4 5.9-3.5 11.2-6.3 11.8-6.3.5 0 1-.4 1-.9s.6-1.1 1.3-1.3c.7-.2 7.9-4.1 15.9-8.8l14.7-8.5v-62.8c0-34.5-.3-62.7-.7-62.7-.4.1-7.7 4.2-16.2 9.2zM178.6 353c0 17 .2 31.1.5 31.4 1.1 1.1 21.2 12.6 22 12.6.5 0 .9.4.9 1 0 .5.4 1 .9 1 1.2 0 22.5 12.3 22.9 13.2.2.5 1.2.8 2.3.8 1 0 1.9.4 1.9.9s.6 1.1 1.4 1.4c1.1.5 1.3-4.6 1.2-31l-.1-31.5-11.5-6.9c-6.3-3.8-12.6-7.4-14-8.1-1.4-.7-8-4.6-14.8-8.5-6.8-4-12.6-7.3-13-7.3-.4 0-.7 13.9-.6 31zm207.9-25c-2.7 1.6-6.8 3.9-9 5.1-7.9 4.3-8.5 3.4 11.1 14.5l4.1 2.3 4.4-3c2.4-1.6 5-2.9 5.7-2.9.6 0 1.2-.4 1.2-.9s.8-1.1 1.8-1.5c.9-.3 3.2-1.4 4.9-2.4l3.3-1.9-5.1-3.2c-2.8-1.7-5.2-3.1-5.4-3.1-.3 0-2.6-1.4-5.2-3-2.6-1.7-5.2-3-5.7-3-.6 0-3.3 1.4-6.1 3zM514 344.8c-11.3 6.8-17.2 10.1-23.9 13.8-1.9 1.1-4 2.3-4.5 2.7-1.5 1.1-38.8 22.7-39.2 22.7-.2 0-2.7 1.5-5.6 3.3-2.9 1.8-7 4.1-9 5.2-2.1 1.1-3.8 2.3-3.8 2.7 0 .5-.9.8-2 .8s-2 .4-2 1c0 .5-.6 1-1.4 1-3.8 0-3.9 1-3.9 65.1 0 34.1.2 62.2.4 62.4.4.4 46.9-26.4 49.5-28.5.7-.7 1.4-.9 1.4-.6 0 .4 1.9-.6 4.3-2.2 2.3-1.6 4.9-3.2 5.7-3.5.8-.4 2.9-1.6 4.5-2.6 1.7-1 7.3-4.3 12.5-7.3s14.1-8.1 19.7-11.4c6.9-4 10.3-6.5 10.5-7.9.8-5 .1-122.9-.8-123.2-.5-.1-6.1 2.8-12.4 6.5zm277-3.3c-3 1.9-6 3.5-6.7 3.5-.6 0-1.3.3-1.5.8-.2.6-11.2 7.1-25.8 15.4-1.9 1.1-6 3.5-9 5.3-15.6 9.2-21.2 12.4-23 13-1.1.4-2 1.1-2 1.6s-.4.9-.9.9c-.9 0-3.9 1.7-15.3 8.5-.9.5-3.6 2-6 3.3-2.4 1.3-5.8 3.3-7.5 4.5l-3.3 2.2v62.2c0 34.2.3 62.4.8 62.6.4.3 3-1 5.7-2.9 2.8-1.8 5.4-3.4 5.8-3.4.4 0 3.1-1.5 6-3.3 2.9-1.8 7.7-4.6 10.7-6.3 3-1.6 6-3.3 6.5-3.7.6-.4 8-4.8 16.5-9.7 8.5-4.9 16-9.3 16.5-9.7.6-.4 2.1-1.4 3.5-2 3.7-1.8 10.8-5.9 12.2-7 .7-.6 3.3-2.1 5.8-3.4 2.5-1.3 5.2-2.9 6-3.5.8-.6 4-2.5 7-4.1l5.5-2.9V401c0-40.7-.3-62.4-1-62.6-.5-.2-3.5 1.2-6.5 3.1zM43.2 431.8l.3 31.6 14 8.3c7.7 4.6 15.7 9.1 17.8 10.1 2 .9 3.7 2 3.7 2.4 0 .5.5.8 1 .8.6 0 2.9 1.1 5.1 2.6 6.9 4.3 11.1 6.5 11.6 6 .4-.4.6-39.6.4-58.1-.1-4.3-.8-4.8-15.6-13.1-1.1-.6-10.2-5.8-20.3-11.7L43 400.1l.2 31.7zm271.5-31.1c-.2.4-.4 14.7-.3 31.7l.1 30.9 26.3 15.4c14.5 8.4 26.7 15.3 27 15.3.4 0 .7-13.9.7-31 0-29.7-.1-31-2-32.4-1.1-.9-2.6-1.6-3.2-1.6-.7 0-1.3-.5-1.3-1 0-.6-.5-1-1.1-1-.6 0-3-1.4-5.4-3-2.4-1.7-4.6-3-5-3-.9 0-31.7-18.1-33.7-19.7-.9-.8-1.8-1.1-2.1-.6zm346.5 16.5c-.7.7-1.2.8-1.2.2 0-.5-.4-.4-.8.1-.6.9-17.4 10.8-44.7 26.5-1.6 1-7 4.1-12 7-12.6 7.4-14.2 8.3-21 12.2-3.3 1.9-10.7 6.3-16.5 9.6l-10.5 6.1-.1 61.8c0 34 .2 62.4.4 63.1.3.8.8.9 1.6.3.9-.7 43.7-25.8 59.1-34.6 2.2-1.3 8.1-4.7 13-7.6 8.4-4.9 24.1-14 31-17.9l3-1.7.2-63.1c.2-34.8.2-63.2 0-63.2s-.8.5-1.5 1.2zm-482.3 63.1c-.1.7-.2 14.8-.3 31.4l-.1 30.2 4 2.3c2.2 1.3 4.8 2.7 5.7 3.3.9.5 5 2.9 9 5.2 4 2.4 9.6 5.6 12.3 7.3 2.8 1.6 5.7 3.3 6.5 3.7.8.4 4.8 2.6 8.8 5 4 2.4 7.4 4.3 7.7 4.3.2 0 .4-14.1.4-31.3v-31.2l-7.6-4.5c-4.3-2.5-8.2-4.7-8.7-4.9-.6-.2-1.3-.7-1.6-1-.5-.7-2.7-1.9-11-6.4-3-1.7-7.4-4.3-9.7-5.9-2.4-1.6-4.3-2.6-4.3-2.2 0 .4-.8 0-1.7-.8-3.6-3-9.3-5.8-9.4-4.5zM520 499c-3.6 2.2-7.1 4.3-7.9 4.6-.8.4-6.4 3.6-12.5 7.2s-13.1 7.6-15.6 9c-2.5 1.4-5.6 3.2-7 4.2-1.4.9-3.2 2-4 2.3-.8.4-3.3 1.8-5.5 3.2-2.2 1.4-4.7 2.8-5.5 3.2-1.5.7-20.1 11.4-23 13.3-5.2 3.3-12.1 7-13 7-.5 0-1 .4-1 .9s-1.3 1.4-3 2.1c-2.5 1-3 1.8-3.1 4.9-.4 19.8 0 121.3.4 121.8.5.5 2.6-.6 12.2-6.4 1.1-.6 3.6-2 5.5-3.1 3.4-1.8 65.5-38 73.5-42.8 2.2-1.3 6.6-3.8 9.8-5.4 3.2-1.7 6.1-3.9 6.5-5 .7-2 .8-123.7.1-124.4-.2-.3-3.4 1.3-6.9 3.4zm270.4.4c-3.9 2.3-7.7 4.5-8.5 4.9-.8.4-3.2 1.8-5.4 3.2-2.2 1.4-5.2 3-6.7 3.6-1.6.6-2.8 1.5-2.8 1.9 0 .4-1.2 1.3-2.7 1.9-1.6.7-3.7 1.7-4.8 2.4-1.1.7-6.3 3.7-11.5 6.7s-10.4 6-11.5 6.7c-1.1.7-2.9 1.7-4 2.3-1.1.6-4.1 2.3-6.6 3.8s-11.6 6.7-20.2 11.7l-15.7 9v62.9c0 58.2.1 62.8 1.7 62.2.9-.4 8.5-4.7 17-9.6 8.4-5 15.6-9 15.9-9 .3 0 1.2-.6 1.9-1.3.8-.6 17.3-10.4 36.7-21.6l35.3-20.4v-62.3c0-34.2-.3-62.5-.5-62.8-.3-.2-3.7 1.4-7.6 3.8zM43 589.3c0 26.7.2 31.6 1.5 32.7.8.7 1.5.9 1.5.5 0-.5.8-.1 1.8.7 1.5 1.4 13.7 8.5 28 16.5 3.1 1.7 6.2 3.5 6.7 4 .6.5 2.5 1.6 4.3 2.5 1.8.9 4.8 2.6 6.7 3.8 3.3 2 3.5 2.1 3.5.3.1-2.7.1-52.1.1-57-.1-4.2-.1-4.2-8.7-9.2-4.7-2.8-9-5.1-9.5-5.1s-.9-.5-.9-1c0-.6-.4-1-1-1-.5 0-3.9-1.8-7.5-4s-6.8-4-7.1-4c-.3 0-1.8-.8-3.2-1.8-1.5-1.1-5.7-3.6-9.4-5.6l-6.8-3.8v31.5zm271.3.2-.1 31.3 19.7 11.3c10.8 6.2 20.5 11.8 21.6 12.4 1.1.5 2.2 1.3 2.5 1.6.5.6 9.8 5.9 10.3 5.9.1 0 .2-13.9.2-31 0-35 .8-31.8-9.2-37.1-3.5-1.8-6.3-3.6-6.3-4.1 0-.4-.5-.8-1-.8-.8 0-11.8-6-20-11-6.9-4.2-14.9-8.7-16.1-9.2-1.4-.5-1.6 3-1.6 30.7zM653 579.2c-4.7 2.8-9.8 5.8-11.5 6.8-1.6.9-8.6 5-15.5 8.9-6.9 4-18.1 10.5-25 14.4-6.9 3.9-12.6 7.5-12.8 7.9-.2.4-.7.8-1.2.8-1 0-30 16.7-31.5 18.1-1 1-1.7 123.4-.8 125.2.5.8 8.6-3.2 9.1-4.6.2-.4.9-.7 1.7-.7.7 0 1.8-.7 2.5-1.5s1.6-1.2 2.1-.9c.5.3.9.2.9-.3 0-.4 1-1.3 2.3-1.9 2.3-1.2 13.6-7.6 33.2-19.1 6.6-3.8 21.2-12.3 32.5-18.9 11.3-6.5 21.1-12.4 21.8-13.1.7-.7 1.8-1.3 2.3-1.3.6 0 .8-.4.4-.9-.3-.5-.5-28.7-.6-62.5 0-33.9-.3-61.6-.7-61.6-.4.1-4.5 2.4-9.2 5.2zm-474.5 89v31.2l6.5 3.7c3.6 2.1 7 4.1 7.5 4.6.6.5 1.7 1.2 2.5 1.5.8.3 8.9 4.9 17.8 10.2 9 5.3 16.8 9.6 17.3 9.6s.9.4.9 1c0 .5.4 1 .9 1 .6 0 .9-12.8.8-31.6l-.2-31.6-22-12.9c-12.1-7.1-22.7-13.2-23.5-13.6-.8-.3-2.2-1.2-3-1.8-.8-.7-2.4-1.5-3.5-1.9-2-.6-2-.1-2 30.6zm327.5-3.6c-10.7 6.3-20.4 11.9-21.5 12.5-1.1.5-2.9 1.5-4 2.1-2.7 1.8-9.1 5.6-12.8 7.7-2.9 1.6-24.3 14.1-41.9 24.3-5 2.9-6.8 4.5-6.9 6.1V780c-.1 49.9.2 60.4 1.3 60.2.7-.2 5-2.6 9.6-5.3 4.5-2.7 8.7-4.9 9.2-4.9.6 0 1-.3 1-.8 0-.4 1-1.2 2.3-1.8 3.2-1.5 9.7-5.2 13.2-7.4 1.7-1.1 4.8-2.9 7-4.1 2.2-1.2 7.7-4.3 12.1-7 4.5-2.7 8.5-4.9 8.8-4.9.4 0 1.2-.5 1.9-1.1.7-.5 10.2-6.2 21.2-12.6 11-6.3 20.2-11.7 20.4-11.9 1-.9.6-125.4-.4-125.3-.5 0-9.8 5.2-20.5 11.5zm-191.7 81.8-.1 31.5 3.7 2.3c2 1.3 4.7 3 6.1 3.8 9 5 29.7 17 30.5 17.7.6.4 2.6 1.7 4.5 2.7 1.9 1 4.9 2.7 6.5 3.7l3 1.8v-63.1l-5.5-3.4c-3-1.8-6.4-3.8-7.5-4.3-1.1-.5-6.3-3.4-11.4-6.5-5.1-3.1-9.7-5.6-10.1-5.6-.5 0-1-.3-1.2-.8-.3-.6-3-2.2-12.3-7.1-1.6-.9-3.5-2.2-4.3-2.9-.7-.6-1.5-1.2-1.6-1.2-.2 0-.3 14.2-.3 31.4z"/></svg>